<svg xmlns="http://www.w3.org/2000/svg" viewBox="0 0 1460 363">
  <path d="M 145,175 145,182 153,190 153,222 161,230 161,246 169,254 169,261 184,276 192,276 199,269 207,269 207,261 215,253 215,246 207,238 207,230 152,175 Z M 207,136 199,144 184,144 177,151 161,151 154,158 154,159 177,159 184,166 199,166 207,174 255,174 270,159 270,151 255,136 Z M 11,136 4,143 4,167 11,174 58,174 66,166 90,166 97,159 104,159 105,158 105,152 104,151 89,151 82,144 66,144 58,136 Z M 1411,104 1404,111 1403,111 1403,261 1411,269 1417,269 1425,261 1425,111 1422,108 1421,108 1417,104 Z M 1128,104 1120,112 1120,120 1128,128 1128,136 1135,143 1135,158 1143,166 1143,182 1151,190 1151,206 1159,214 1159,222 1167,230 1167,246 1171,250 1172,250 1175,253 1175,285 1172,288 1171,288 1167,292 1167,308 1159,316 1159,332 1151,340 1151,347 1174,347 1182,339 1182,331 1188,325 1189,325 1189,324 1190,323 1190,308 1197,301 1197,285 1205,277 1205,269 1213,261 1213,246 1219,240 1219,239 1221,237 1221,230 1229,222 1229,206 1237,198 1237,182 1245,174 1245,159 1246,158 1246,157 1252,151 1252,136 1260,128 1260,120 1268,112 1260,112 1252,104 1246,104 1244,106 1243,106 1238,111 1238,119 1230,127 1230,135 1222,143 1222,159 1214,167 1214,183 1208,189 1207,189 1207,190 1206,191 1206,198 1190,214 1174,198 1174,183 1166,175 1166,159 1158,151 1158,127 1150,119 1150,112 1143,112 1136,105 1135,105 1134,104 Z M 688,104 687,105 686,105 680,111 680,261 685,266 685,267 686,268 687,268 688,269 702,269 702,175 710,167 710,151 726,135 734,135 742,127 758,127 766,135 774,135 790,151 790,159 797,166 797,167 798,168 798,262 804,268 805,268 806,269 812,269 820,261 820,159 844,135 852,135 860,127 876,127 907,158 907,159 908,160 908,261 910,263 910,264 914,268 915,268 916,269 930,269 938,261 938,198 946,190 947,190 952,195 952,196 955,199 955,214 963,222 963,230 970,237 970,245 978,253 986,253 1002,269 1056,269 1064,261 1071,261 1072,260 1073,260 1095,238 1095,222 1072,222 1056,238 1049,238 1041,246 1017,246 985,214 985,206 993,198 1025,198 1033,190 1049,190 1056,197 1057,197 1064,190 1072,198 1080,198 1088,190 1096,198 1103,198 1111,190 1111,167 1103,159 1103,143 1072,112 1064,112 1056,104 1010,104 1002,112 994,112 963,143 963,150 962,151 962,152 955,159 955,166 952,169 952,170 947,175 946,175 938,167 938,151 930,143 930,135 907,112 899,112 892,105 891,105 890,104 853,104 851,106 850,106 844,112 837,112 821,128 813,128 797,112 789,112 782,105 781,105 780,104 743,104 742,105 741,105 734,112 702,112 694,104 Z M 625,104 619,110 618,110 617,111 617,261 625,269 639,269 647,261 647,112 639,104 Z M 1403,49 1403,65 1410,72 1425,72 1425,49 Z M 436,41 428,49 428,64 490,64 507,81 507,261 515,269 521,269 529,261 529,81 538,72 538,71 545,64 616,64 624,72 639,72 639,65 647,57 639,49 608,49 600,41 Z M 74,34 67,41 59,41 59,73 67,81 67,89 89,111 97,111 120,134 121,134 121,105 120,104 120,103 113,96 113,73 105,65 105,57 97,49 97,42 96,41 89,41 82,34 Z M 1347,18 1339,26 1323,26 1309,40 1309,41 1308,42 1308,96 1303,101 1303,102 1301,104 1293,104 1285,112 1285,128 1308,151 1308,268 1309,269 1323,269 1331,261 1331,143 1339,135 1371,135 1378,128 1378,112 1370,104 1356,104 1351,109 1350,109 1347,112 1331,96 1331,64 1332,63 1333,63 1347,49 1362,49 1378,33 1378,26 1371,26 1363,18 Z " fill="black" stroke="none"/>
</svg>